<svg xmlns="http://www.w3.org/2000/svg" viewBox="0 0 760 220" width="760" height="220">
  <style>
    @import url('https://fonts.googleapis.com/css2?family=JetBrains+Mono:wght@100;300;400;700;800&amp;display=swap');
    .mono { font-family: 'JetBrains Mono', 'SF Mono', 'Fira Code', monospace; }
  </style>

  <rect width="760" height="220" fill="#ffffff"/>

  <!-- Top color dash border -->
  <g opacity="0.18">
    <rect x="80" y="10" width="16" height="3" fill="#ff3366"/>
    <rect x="100" y="10" width="10" height="3" fill="#00ccff"/>
    <rect x="114" y="10" width="6" height="3" fill="#00ff88"/>
    <rect x="124" y="10" width="4" height="3" fill="#ffcc00"/>

    <rect x="340" y="10" width="4" height="3" fill="#ffcc00"/>
    <rect x="348" y="10" width="6" height="3" fill="#00ff88"/>
    <rect x="358" y="10" width="10" height="3" fill="#00ccff"/>
    <rect x="372" y="10" width="16" height="3" fill="#ff3366"/>

    <rect x="580" y="10" width="4" height="3" fill="#ff3366"/>
    <rect x="588" y="10" width="6" height="3" fill="#ffcc00"/>
    <rect x="598" y="10" width="10" height="3" fill="#00ff88"/>
    <rect x="612" y="10" width="16" height="3" fill="#00ccff"/>

    <rect x="660" y="10" width="16" height="3" fill="#ff3366"/>
    <rect x="680" y="10" width="10" height="3" fill="#00ccff"/>
  </g>

  <!-- Surreal pixel mandala pattern behind text -->
  <g transform="translate(380, 100)" opacity="0.03">
    <!-- Diamond rings -->
    <polygon points="0,-90 90,0 0,90 -90,0" fill="none" stroke="#ff3366" stroke-width="2"/>
    <polygon points="0,-70 70,0 0,70 -70,0" fill="none" stroke="#00ccff" stroke-width="1.5"/>
    <polygon points="0,-50 50,0 0,50 -50,0" fill="none" stroke="#00ff88" stroke-width="1"/>
    <polygon points="0,-30 30,0 0,30 -30,0" fill="none" stroke="#ffcc00" stroke-width="1"/>
    <!-- Cross rays -->
    <line x1="-120" y1="0" x2="120" y2="0" stroke="#ff3366" stroke-width="1"/>
    <line x1="0" y1="-90" x2="0" y2="90" stroke="#00ccff" stroke-width="1"/>
    <line x1="-85" y1="-85" x2="85" y2="85" stroke="#00ff88" stroke-width="0.8"/>
    <line x1="85" y1="-85" x2="-85" y2="85" stroke="#ffcc00" stroke-width="0.8"/>
  </g>

  <!-- Floating pixel particles -->
  <g>
    <rect x="30" y="40" width="3" height="3" fill="#ff3366" opacity="0.10"/>
    <rect x="50" y="60" width="2" height="2" fill="#00ccff" opacity="0.08"/>
    <rect x="18" y="80" width="3" height="3" fill="#00ff88" opacity="0.06"/>
    <rect x="44" y="100" width="2" height="2" fill="#ffcc00" opacity="0.10"/>
    <rect x="28" y="140" width="3" height="3" fill="#ff3366" opacity="0.05"/>
    <rect x="55" y="160" width="2" height="2" fill="#00ccff" opacity="0.08"/>

    <rect x="700" y="45" width="3" height="3" fill="#ffcc00" opacity="0.10"/>
    <rect x="720" y="70" width="2" height="2" fill="#ff3366" opacity="0.08"/>
    <rect x="735" y="95" width="3" height="3" fill="#00ff88" opacity="0.06"/>
    <rect x="710" y="130" width="2" height="2" fill="#00ccff" opacity="0.10"/>
    <rect x="730" y="155" width="3" height="3" fill="#ffcc00" opacity="0.05"/>
    <rect x="705" y="175" width="2" height="2" fill="#ff3366" opacity="0.08"/>
  </g>

  <!-- ═══════════════════════════════════════════════ -->
  <!-- DREAMREC — BIG PIXEL BLOCK LETTERS              -->
  <!-- Each letter is built from 3x5 pixel grid (6px) -->
  <!-- ═══════════════════════════════════════════════ -->

  <!-- DREAMREC — big pixel block letters at 2.2x -->
  <g transform="translate(80, 28) scale(2.2)">
    <!-- D -->
    <g fill="#ff3366">
      <rect x="0" y="0" width="5" height="5"/><rect x="5" y="0" width="5" height="5"/><rect x="10" y="0" width="5" height="5"/>
      <rect x="0" y="5" width="5" height="5"/><rect x="15" y="5" width="5" height="5"/>
      <rect x="0" y="10" width="5" height="5"/><rect x="15" y="10" width="5" height="5"/>
      <rect x="0" y="15" width="5" height="5"/><rect x="15" y="15" width="5" height="5"/>
      <rect x="0" y="20" width="5" height="5"/><rect x="5" y="20" width="5" height="5"/><rect x="10" y="20" width="5" height="5"/>
    </g>
    <!-- R -->
    <g fill="#ff3366" transform="translate(25, 0)">
      <rect x="0" y="0" width="5" height="5"/><rect x="5" y="0" width="5" height="5"/><rect x="10" y="0" width="5" height="5"/>
      <rect x="0" y="5" width="5" height="5"/><rect x="15" y="5" width="5" height="5"/>
      <rect x="0" y="10" width="5" height="5"/><rect x="5" y="10" width="5" height="5"/><rect x="10" y="10" width="5" height="5"/>
      <rect x="0" y="15" width="5" height="5"/><rect x="10" y="15" width="5" height="5"/>
      <rect x="0" y="20" width="5" height="5"/><rect x="15" y="20" width="5" height="5"/>
    </g>
    <!-- E -->
    <g fill="#00ccff" transform="translate(50, 0)">
      <rect x="0" y="0" width="5" height="5"/><rect x="5" y="0" width="5" height="5"/><rect x="10" y="0" width="5" height="5"/><rect x="15" y="0" width="5" height="5"/>
      <rect x="0" y="5" width="5" height="5"/>
      <rect x="0" y="10" width="5" height="5"/><rect x="5" y="10" width="5" height="5"/><rect x="10" y="10" width="5" height="5"/>
      <rect x="0" y="15" width="5" height="5"/>
      <rect x="0" y="20" width="5" height="5"/><rect x="5" y="20" width="5" height="5"/><rect x="10" y="20" width="5" height="5"/><rect x="15" y="20" width="5" height="5"/>
    </g>
    <!-- A -->
    <g fill="#00ccff" transform="translate(75, 0)">
      <rect x="5" y="0" width="5" height="5"/><rect x="10" y="0" width="5" height="5"/>
      <rect x="0" y="5" width="5" height="5"/><rect x="15" y="5" width="5" height="5"/>
      <rect x="0" y="10" width="5" height="5"/><rect x="5" y="10" width="5" height="5"/><rect x="10" y="10" width="5" height="5"/><rect x="15" y="10" width="5" height="5"/>
      <rect x="0" y="15" width="5" height="5"/><rect x="15" y="15" width="5" height="5"/>
      <rect x="0" y="20" width="5" height="5"/><rect x="15" y="20" width="5" height="5"/>
    </g>
    <!-- M -->
    <g fill="#00ff88" transform="translate(100, 0)">
      <rect x="0" y="0" width="5" height="5"/><rect x="20" y="0" width="5" height="5"/>
      <rect x="0" y="5" width="5" height="5"/><rect x="5" y="5" width="5" height="5"/><rect x="15" y="5" width="5" height="5"/><rect x="20" y="5" width="5" height="5"/>
      <rect x="0" y="10" width="5" height="5"/><rect x="10" y="10" width="5" height="5"/><rect x="20" y="10" width="5" height="5"/>
      <rect x="0" y="15" width="5" height="5"/><rect x="20" y="15" width="5" height="5"/>
      <rect x="0" y="20" width="5" height="5"/><rect x="20" y="20" width="5" height="5"/>
    </g>
    <!-- R -->
    <g fill="#00ff88" transform="translate(130, 0)">
      <rect x="0" y="0" width="5" height="5"/><rect x="5" y="0" width="5" height="5"/><rect x="10" y="0" width="5" height="5"/>
      <rect x="0" y="5" width="5" height="5"/><rect x="15" y="5" width="5" height="5"/>
      <rect x="0" y="10" width="5" height="5"/><rect x="5" y="10" width="5" height="5"/><rect x="10" y="10" width="5" height="5"/>
      <rect x="0" y="15" width="5" height="5"/><rect x="10" y="15" width="5" height="5"/>
      <rect x="0" y="20" width="5" height="5"/><rect x="15" y="20" width="5" height="5"/>
    </g>
    <!-- E -->
    <g fill="#ffcc00" transform="translate(155, 0)">
      <rect x="0" y="0" width="5" height="5"/><rect x="5" y="0" width="5" height="5"/><rect x="10" y="0" width="5" height="5"/><rect x="15" y="0" width="5" height="5"/>
      <rect x="0" y="5" width="5" height="5"/>
      <rect x="0" y="10" width="5" height="5"/><rect x="5" y="10" width="5" height="5"/><rect x="10" y="10" width="5" height="5"/>
      <rect x="0" y="15" width="5" height="5"/>
      <rect x="0" y="20" width="5" height="5"/><rect x="5" y="20" width="5" height="5"/><rect x="10" y="20" width="5" height="5"/><rect x="15" y="20" width="5" height="5"/>
    </g>
    <!-- C -->
    <g fill="#ffcc00" transform="translate(180, 0)">
      <rect x="5" y="0" width="5" height="5"/><rect x="10" y="0" width="5" height="5"/><rect x="15" y="0" width="5" height="5"/>
      <rect x="0" y="5" width="5" height="5"/>
      <rect x="0" y="10" width="5" height="5"/>
      <rect x="0" y="15" width="5" height="5"/>
      <rect x="5" y="20" width="5" height="5"/><rect x="10" y="20" width="5" height="5"/><rect x="15" y="20" width="5" height="5"/>
    </g>
  </g>

  <!-- LABS subtitle -->
  <text x="380" y="105" class="mono" font-size="14" font-weight="300"
        fill="#111111" opacity="0.25" text-anchor="middle" letter-spacing="12">L A B S</text>

  <!-- Thin separator -->
  <rect x="200" y="115" width="360" height="1" fill="#111111" opacity="0.06"/>

  <!-- Tagline -->
  <text x="380" y="138" class="mono" font-size="10" font-weight="300"
        fill="#111111" opacity="0.2" text-anchor="middle" letter-spacing="1">where machines learn to dream</text>

  <!-- Pixel wave pattern bottom -->
  <g opacity="0.08" transform="translate(0, 155)">
    <!-- Wave 1 -->
    <rect x="80" y="0" width="4" height="4" fill="#ff3366"/>
    <rect x="88" y="4" width="4" height="4" fill="#ff3366"/>
    <rect x="96" y="8" width="4" height="4" fill="#ff3366"/>
    <rect x="104" y="4" width="4" height="4" fill="#ff3366"/>
    <rect x="112" y="0" width="4" height="4" fill="#ff3366"/>
    <rect x="120" y="4" width="4" height="4" fill="#ff3366"/>
    <rect x="128" y="8" width="4" height="4" fill="#ff3366"/>
    <rect x="136" y="4" width="4" height="4" fill="#ff3366"/>
    <rect x="144" y="0" width="4" height="4" fill="#ff3366"/>

    <!-- Wave 2 -->
    <rect x="220" y="0" width="4" height="4" fill="#00ccff"/>
    <rect x="228" y="4" width="4" height="4" fill="#00ccff"/>
    <rect x="236" y="8" width="4" height="4" fill="#00ccff"/>
    <rect x="244" y="4" width="4" height="4" fill="#00ccff"/>
    <rect x="252" y="0" width="4" height="4" fill="#00ccff"/>
    <rect x="260" y="4" width="4" height="4" fill="#00ccff"/>
    <rect x="268" y="8" width="4" height="4" fill="#00ccff"/>

    <!-- Wave 3 -->
    <rect x="360" y="0" width="4" height="4" fill="#00ff88"/>
    <rect x="368" y="4" width="4" height="4" fill="#00ff88"/>
    <rect x="376" y="8" width="4" height="4" fill="#00ff88"/>
    <rect x="384" y="4" width="4" height="4" fill="#00ff88"/>
    <rect x="392" y="0" width="4" height="4" fill="#00ff88"/>
    <rect x="400" y="4" width="4" height="4" fill="#00ff88"/>
    <rect x="408" y="8" width="4" height="4" fill="#00ff88"/>

    <!-- Wave 4 -->
    <rect x="500" y="0" width="4" height="4" fill="#ffcc00"/>
    <rect x="508" y="4" width="4" height="4" fill="#ffcc00"/>
    <rect x="516" y="8" width="4" height="4" fill="#ffcc00"/>
    <rect x="524" y="4" width="4" height="4" fill="#ffcc00"/>
    <rect x="532" y="0" width="4" height="4" fill="#ffcc00"/>
    <rect x="540" y="4" width="4" height="4" fill="#ffcc00"/>
    <rect x="548" y="8" width="4" height="4" fill="#ffcc00"/>
    <rect x="556" y="4" width="4" height="4" fill="#ffcc00"/>
    <rect x="564" y="0" width="4" height="4" fill="#ffcc00"/>

    <!-- Wave 5 -->
    <rect x="620" y="0" width="4" height="4" fill="#ff3366"/>
    <rect x="628" y="4" width="4" height="4" fill="#00ccff"/>
    <rect x="636" y="8" width="4" height="4" fill="#00ff88"/>
    <rect x="644" y="4" width="4" height="4" fill="#ffcc00"/>
    <rect x="652" y="0" width="4" height="4" fill="#ff3366"/>
    <rect x="660" y="4" width="4" height="4" fill="#00ccff"/>
    <rect x="668" y="8" width="4" height="4" fill="#00ff88"/>
  </g>

  <!-- Bottom color dash border -->
  <g opacity="0.15">
    <rect x="80" y="207" width="16" height="3" fill="#00ccff"/>
    <rect x="100" y="207" width="10" height="3" fill="#ff3366"/>
    <rect x="114" y="207" width="6" height="3" fill="#ffcc00"/>
    <rect x="124" y="207" width="4" height="3" fill="#00ff88"/>

    <rect x="620" y="207" width="4" height="3" fill="#00ff88"/>
    <rect x="628" y="207" width="6" height="3" fill="#ffcc00"/>
    <rect x="638" y="207" width="10" height="3" fill="#ff3366"/>
    <rect x="652" y="207" width="16" height="3" fill="#00ccff"/>
  </g>

  <!-- Corner marks -->
  <g opacity="0.10">
    <rect x="6" y="6" width="2" height="14" fill="#111111"/>
    <rect x="6" y="6" width="14" height="2" fill="#111111"/>
    <rect x="752" y="200" width="2" height="14" fill="#111111"/>
    <rect x="738" y="212" width="16" height="2" fill="#111111"/>
  </g>

  <!-- GitHub link -->
  <text x="380" y="195" class="mono" font-size="9" font-weight="300"
        fill="#111111" opacity="0.15" text-anchor="middle">github.com/dreamrec</text>

</svg>