<svg xmlns="http://www.w3.org/2000/svg" viewBox="0 0 760 320" width="760" height="320">
  <style>
    @import url('https://fonts.googleapis.com/css2?family=JetBrains+Mono:wght@100;300;400;700;800&amp;display=swap');
    .mono { font-family: 'JetBrains Mono', 'SF Mono', 'Fira Code', monospace; }
  </style>

  <rect width="760" height="320" fill="#ffffff"/>

  <!-- ═══════════════════════════════════════════════════════ -->
  <!-- SURREAL PSYCHEDELIC PIXEL LANDSCAPE BEHIND CHARACTER    -->
  <!-- Geometric patterns radiating outward — sacred geometry  -->
  <!-- ═══════════════════════════════════════════════════════ -->

  <!-- Concentric diamond rings — outermost layer -->
  <g opacity="0.04">
    <!-- Ring 5 — huge -->
    <polygon points="120,160 -40,320 120,480 280,320" fill="none" stroke="#ff3366" stroke-width="2"/>
    <polygon points="120,160 -60,300 120,500 300,300" fill="none" stroke="#00ccff" stroke-width="1.5"/>
  </g>

  <!-- Pixel grid mandala behind character -->
  <g transform="translate(120, 148)" opacity="0.06">
    <!-- Horizontal rays -->
    <g fill="#ff3366">
      <rect x="-110" y="-2" width="6" height="4"/>
      <rect x="-98" y="-2" width="6" height="4"/>
      <rect x="-86" y="-2" width="6" height="4"/>
      <rect x="-74" y="-2" width="6" height="4"/>
      <rect x="88" y="-2" width="6" height="4"/>
      <rect x="100" y="-2" width="6" height="4"/>
      <rect x="112" y="-2" width="6" height="4"/>
      <rect x="124" y="-2" width="6" height="4"/>
    </g>
    <!-- Vertical rays -->
    <g fill="#00ccff">
      <rect x="-2" y="-120" width="4" height="6"/>
      <rect x="-2" y="-108" width="4" height="6"/>
      <rect x="-2" y="-96" width="4" height="6"/>
      <rect x="-2" y="100" width="4" height="6"/>
      <rect x="-2" y="112" width="4" height="6"/>
      <rect x="-2" y="124" width="4" height="6"/>
    </g>
    <!-- Diagonal rays NE -->
    <g fill="#00ff88">
      <rect x="62" y="-68" width="4" height="4"/>
      <rect x="72" y="-78" width="4" height="4"/>
      <rect x="82" y="-88" width="4" height="4"/>
      <rect x="92" y="-98" width="4" height="4"/>
      <rect x="-66" y="62" width="4" height="4"/>
      <rect x="-76" y="72" width="4" height="4"/>
      <rect x="-86" y="82" width="4" height="4"/>
    </g>
    <!-- Diagonal rays NW -->
    <g fill="#ffcc00">
      <rect x="-66" y="-68" width="4" height="4"/>
      <rect x="-76" y="-78" width="4" height="4"/>
      <rect x="-86" y="-88" width="4" height="4"/>
      <rect x="-96" y="-98" width="4" height="4"/>
      <rect x="62" y="62" width="4" height="4"/>
      <rect x="72" y="72" width="4" height="4"/>
      <rect x="82" y="82" width="4" height="4"/>
    </g>
  </g>

  <!-- Concentric pixel diamond rings -->
  <g transform="translate(120, 148)">
    <!-- Ring 1 — tight -->
    <g fill="none" stroke="#ff3366" stroke-width="1" opacity="0.06">
      <polygon points="0,-80 80,0 0,80 -80,0"/>
    </g>
    <!-- Ring 2 -->
    <g fill="none" stroke="#00ccff" stroke-width="1" opacity="0.05">
      <polygon points="0,-100 100,0 0,100 -100,0"/>
    </g>
    <!-- Ring 3 -->
    <g fill="none" stroke="#00ff88" stroke-width="1" opacity="0.04">
      <polygon points="0,-120 120,0 0,120 -120,0"/>
    </g>
    <!-- Ring 4 -->
    <g fill="none" stroke="#ffcc00" stroke-width="1" opacity="0.035">
      <polygon points="0,-140 140,0 0,140 -140,0"/>
    </g>
  </g>

  <!-- Floating pixel particles — psychedelic scatter -->
  <g>
    <!-- Top-left cluster -->
    <rect x="14" y="18" width="3" height="3" fill="#ff3366" opacity="0.12"/>
    <rect x="22" y="32" width="3" height="3" fill="#00ccff" opacity="0.10"/>
    <rect x="8" y="44" width="3" height="3" fill="#00ff88" opacity="0.08"/>
    <rect x="38" y="14" width="2" height="2" fill="#ffcc00" opacity="0.12"/>
    <rect x="48" y="28" width="3" height="3" fill="#ff3366" opacity="0.06"/>
    <rect x="30" y="52" width="2" height="2" fill="#00ccff" opacity="0.10"/>

    <!-- Top scattered -->
    <rect x="200" y="12" width="3" height="3" fill="#ff3366" opacity="0.05"/>
    <rect x="240" y="8" width="2" height="2" fill="#00ff88" opacity="0.06"/>
    <rect x="310" y="16" width="3" height="3" fill="#ffcc00" opacity="0.04"/>

    <!-- Right side floating -->
    <rect x="700" y="40" width="3" height="3" fill="#00ccff" opacity="0.08"/>
    <rect x="720" y="56" width="2" height="2" fill="#ff3366" opacity="0.10"/>
    <rect x="735" y="30" width="3" height="3" fill="#00ff88" opacity="0.06"/>
    <rect x="710" y="70" width="2" height="2" fill="#ffcc00" opacity="0.08"/>
    <rect x="740" y="80" width="3" height="3" fill="#ff3366" opacity="0.05"/>

    <!-- Bottom scattered -->
    <rect x="16" y="280" width="3" height="3" fill="#ffcc00" opacity="0.08"/>
    <rect x="32" y="290" width="2" height="2" fill="#ff3366" opacity="0.10"/>
    <rect x="50" y="275" width="3" height="3" fill="#00ccff" opacity="0.06"/>
    <rect x="700" y="280" width="3" height="3" fill="#00ff88" opacity="0.07"/>
    <rect x="720" y="270" width="2" height="2" fill="#ff3366" opacity="0.08"/>
    <rect x="738" y="295" width="3" height="3" fill="#00ccff" opacity="0.05"/>
  </g>

  <!-- Pixel chevron patterns (left side, like data flowing in) -->
  <g opacity="0.05">
    <polygon points="0,120 16,128 0,136" fill="#00ccff"/>
    <polygon points="0,145 16,153 0,161" fill="#00ccff"/>
    <polygon points="0,170 16,178 0,186" fill="#00ccff"/>
  </g>

  <!-- ═══════════════════════════════════════════════ -->
  <!-- PIXEL MUSHROOM-NODE CHARACTER                   -->
  <!-- ═══════════════════════════════════════════════ -->

  <g transform="translate(62, 40)">

    <!-- ── ANTENNA ── -->
    <rect x="56" y="0" width="8" height="8" fill="#00ff88"/>
    <rect x="56" y="8" width="8" height="8" fill="#00ff88" opacity="0.75"/>
    <rect x="56" y="16" width="8" height="8" fill="#00ff88" opacity="0.5"/>
    <!-- Signal pixels -->
    <rect x="72" y="0" width="6" height="6" fill="#00ff88" opacity="0.25"/>
    <rect x="82" y="6" width="4" height="4" fill="#00ff88" opacity="0.12"/>
    <rect x="40" y="0" width="6" height="6" fill="#00ff88" opacity="0.25"/>
    <rect x="30" y="6" width="4" height="4" fill="#00ff88" opacity="0.12"/>

    <!-- ── MUSHROOM CAP ── -->
    <!-- Row 1 -->
    <rect x="32" y="24" width="8" height="8" fill="#ff3366"/>
    <rect x="40" y="24" width="8" height="8" fill="#ff3366"/>
    <rect x="48" y="24" width="8" height="8" fill="#ff1a4a"/>
    <rect x="56" y="24" width="8" height="8" fill="#ff1a4a"/>
    <rect x="64" y="24" width="8" height="8" fill="#ff3366"/>
    <rect x="72" y="24" width="8" height="8" fill="#ff3366"/>
    <rect x="80" y="24" width="8" height="8" fill="#ff4477"/>

    <!-- Row 2 -->
    <rect x="16" y="32" width="8" height="8" fill="#ff4477"/>
    <rect x="24" y="32" width="8" height="8" fill="#ff3366"/>
    <rect x="32" y="32" width="8" height="8" fill="#ff1a4a"/>
    <rect x="40" y="32" width="8" height="8" fill="#ff1a4a"/>
    <rect x="48" y="32" width="8" height="8" fill="#ee0044"/>
    <rect x="56" y="32" width="8" height="8" fill="#ee0044"/>
    <rect x="64" y="32" width="8" height="8" fill="#ff1a4a"/>
    <rect x="72" y="32" width="8" height="8" fill="#ff1a4a"/>
    <rect x="80" y="32" width="8" height="8" fill="#ff3366"/>
    <rect x="88" y="32" width="8" height="8" fill="#ff4477"/>
    <rect x="96" y="32" width="8" height="8" fill="#ff4477"/>

    <!-- Row 3 — texture spots -->
    <rect x="8" y="40" width="8" height="8" fill="#ff4477"/>
    <rect x="16" y="40" width="8" height="8" fill="#ff1a4a"/>
    <rect x="24" y="40" width="8" height="8" fill="#ff1a4a"/>
    <rect x="32" y="40" width="8" height="8" fill="#ee0044"/>
    <rect x="40" y="40" width="8" height="8" fill="#ff6699" opacity="0.4"/>
    <rect x="48" y="40" width="8" height="8" fill="#ee0044"/>
    <rect x="56" y="40" width="8" height="8" fill="#ee0044"/>
    <rect x="64" y="40" width="8" height="8" fill="#ff6699" opacity="0.4"/>
    <rect x="72" y="40" width="8" height="8" fill="#ee0044"/>
    <rect x="80" y="40" width="8" height="8" fill="#ff1a4a"/>
    <rect x="88" y="40" width="8" height="8" fill="#ff1a4a"/>
    <rect x="96" y="40" width="8" height="8" fill="#ff4477"/>
    <rect x="104" y="40" width="8" height="8" fill="#ff4477"/>

    <!-- Row 4 -->
    <rect x="0" y="48" width="8" height="8" fill="#ff4477"/>
    <rect x="8" y="48" width="8" height="8" fill="#ff1a4a"/>
    <rect x="16" y="48" width="8" height="8" fill="#ee0044"/>
    <rect x="24" y="48" width="8" height="8" fill="#ee0044"/>
    <rect x="32" y="48" width="8" height="8" fill="#cc0033"/>
    <rect x="40" y="48" width="8" height="8" fill="#cc0033"/>
    <rect x="48" y="48" width="8" height="8" fill="#cc0033"/>
    <rect x="56" y="48" width="8" height="8" fill="#cc0033"/>
    <rect x="64" y="48" width="8" height="8" fill="#cc0033"/>
    <rect x="72" y="48" width="8" height="8" fill="#cc0033"/>
    <rect x="80" y="48" width="8" height="8" fill="#ee0044"/>
    <rect x="88" y="48" width="8" height="8" fill="#ee0044"/>
    <rect x="96" y="48" width="8" height="8" fill="#ff1a4a"/>
    <rect x="104" y="48" width="8" height="8" fill="#ff4477"/>
    <rect x="112" y="48" width="8" height="8" fill="#ff4477"/>

    <!-- Row 5 (cap rim) -->
    <rect x="0" y="56" width="8" height="8" fill="#aa0028"/>
    <rect x="8" y="56" width="8" height="8" fill="#aa0028"/>
    <rect x="16" y="56" width="8" height="8" fill="#aa0028"/>
    <rect x="24" y="56" width="8" height="8" fill="#990022"/>
    <rect x="32" y="56" width="8" height="8" fill="#990022"/>
    <rect x="40" y="56" width="8" height="8" fill="#990022"/>
    <rect x="48" y="56" width="8" height="8" fill="#990022"/>
    <rect x="56" y="56" width="8" height="8" fill="#990022"/>
    <rect x="64" y="56" width="8" height="8" fill="#990022"/>
    <rect x="72" y="56" width="8" height="8" fill="#990022"/>
    <rect x="80" y="56" width="8" height="8" fill="#990022"/>
    <rect x="88" y="56" width="8" height="8" fill="#aa0028"/>
    <rect x="96" y="56" width="8" height="8" fill="#aa0028"/>
    <rect x="104" y="56" width="8" height="8" fill="#aa0028"/>
    <rect x="112" y="56" width="8" height="8" fill="#aa0028"/>

    <!-- ── CONNECTORS ── -->
    <!-- Left inputs (cyan) -->
    <rect x="-16" y="36" width="8" height="8" fill="#00ccff"/>
    <rect x="-8" y="36" width="8" height="8" fill="#00ccff" opacity="0.6"/>
    <rect x="-16" y="52" width="8" height="8" fill="#00ccff" opacity="0.7"/>
    <rect x="-8" y="52" width="8" height="8" fill="#00ccff" opacity="0.35"/>
    <!-- Left wires -->
    <rect x="-40" y="37" width="6" height="6" fill="#00ccff" opacity="0.12"/>
    <rect x="-30" y="37" width="6" height="6" fill="#00ccff" opacity="0.25"/>
    <rect x="-22" y="37" width="4" height="4" fill="#00ccff" opacity="0.4"/>

    <!-- Right outputs (gold) -->
    <rect x="120" y="36" width="8" height="8" fill="#ffcc00" opacity="0.6"/>
    <rect x="112" y="36" width="8" height="8" fill="#ffcc00"/>
    <rect x="120" y="52" width="8" height="8" fill="#ffcc00" opacity="0.35"/>
    <rect x="112" y="52" width="8" height="8" fill="#ffcc00" opacity="0.7"/>
    <!-- Right wires -->
    <rect x="132" y="37" width="4" height="4" fill="#ffcc00" opacity="0.4"/>
    <rect x="138" y="37" width="6" height="6" fill="#ffcc00" opacity="0.25"/>
    <rect x="148" y="37" width="6" height="6" fill="#ffcc00" opacity="0.12"/>

    <!-- ── STEM / BODY ── -->
    <g>
      <rect x="24" y="64" width="8" height="8" fill="#e0e0e0"/>
      <rect x="32" y="64" width="8" height="8" fill="#f5f5f5"/>
      <rect x="40" y="64" width="8" height="8" fill="#f5f5f5"/>
      <rect x="48" y="64" width="8" height="8" fill="#f5f5f5"/>
      <rect x="56" y="64" width="8" height="8" fill="#f5f5f5"/>
      <rect x="64" y="64" width="8" height="8" fill="#f5f5f5"/>
      <rect x="72" y="64" width="8" height="8" fill="#f5f5f5"/>
      <rect x="80" y="64" width="8" height="8" fill="#f5f5f5"/>
      <rect x="88" y="64" width="8" height="8" fill="#e0e0e0"/>

      <rect x="24" y="72" width="8" height="8" fill="#e0e0e0"/>
      <rect x="32" y="72" width="8" height="8" fill="#f5f5f5"/>
      <rect x="40" y="72" width="8" height="8" fill="#f5f5f5"/>
      <rect x="48" y="72" width="8" height="8" fill="#f5f5f5"/>
      <rect x="56" y="72" width="8" height="8" fill="#f5f5f5"/>
      <rect x="64" y="72" width="8" height="8" fill="#f5f5f5"/>
      <rect x="72" y="72" width="8" height="8" fill="#f5f5f5"/>
      <rect x="80" y="72" width="8" height="8" fill="#f5f5f5"/>
      <rect x="88" y="72" width="8" height="8" fill="#e0e0e0"/>

      <!-- FACE — Eyes -->
      <rect x="32" y="72" width="8" height="8" fill="#111111"/>
      <rect x="40" y="72" width="8" height="8" fill="#111111"/>
      <rect x="32" y="80" width="8" height="8" fill="#111111"/>
      <rect x="40" y="80" width="8" height="8" fill="#111111"/>
      <rect x="32" y="72" width="4" height="4" fill="#ffffff"/>

      <rect x="72" y="72" width="8" height="8" fill="#111111"/>
      <rect x="80" y="72" width="8" height="8" fill="#111111"/>
      <rect x="72" y="80" width="8" height="8" fill="#111111"/>
      <rect x="80" y="80" width="8" height="8" fill="#111111"/>
      <rect x="72" y="72" width="4" height="4" fill="#ffffff"/>

      <!-- Body mid -->
      <rect x="24" y="80" width="8" height="8" fill="#e0e0e0"/>
      <rect x="48" y="80" width="8" height="8" fill="#f5f5f5"/>
      <rect x="56" y="80" width="8" height="8" fill="#f5f5f5"/>
      <rect x="64" y="80" width="8" height="8" fill="#f5f5f5"/>
      <rect x="88" y="80" width="8" height="8" fill="#e0e0e0"/>

      <!-- Mouth row -->
      <rect x="24" y="88" width="8" height="8" fill="#e0e0e0"/>
      <rect x="32" y="88" width="8" height="8" fill="#f5f5f5"/>
      <rect x="40" y="88" width="8" height="8" fill="#f5f5f5"/>
      <rect x="48" y="88" width="8" height="8" fill="#f5f5f5"/>
      <rect x="56" y="88" width="8" height="8" fill="#f5f5f5"/>
      <rect x="64" y="88" width="8" height="8" fill="#f5f5f5"/>
      <rect x="72" y="88" width="8" height="8" fill="#f5f5f5"/>
      <rect x="80" y="88" width="8" height="8" fill="#f5f5f5"/>
      <rect x="88" y="88" width="8" height="8" fill="#e0e0e0"/>
      <!-- Mouth -->
      <rect x="48" y="94" width="8" height="4" fill="#111111" opacity="0.35"/>
      <rect x="56" y="94" width="8" height="4" fill="#111111" opacity="0.35"/>

      <!-- Body bottom -->
      <rect x="24" y="96" width="8" height="8" fill="#e0e0e0"/>
      <rect x="32" y="96" width="8" height="8" fill="#f5f5f5"/>
      <rect x="40" y="96" width="8" height="8" fill="#f5f5f5"/>
      <rect x="48" y="96" width="8" height="8" fill="#f5f5f5"/>
      <rect x="56" y="96" width="8" height="8" fill="#f5f5f5"/>
      <rect x="64" y="96" width="8" height="8" fill="#f5f5f5"/>
      <rect x="72" y="96" width="8" height="8" fill="#f5f5f5"/>
      <rect x="80" y="96" width="8" height="8" fill="#f5f5f5"/>
      <rect x="88" y="96" width="8" height="8" fill="#e0e0e0"/>
    </g>

    <!-- ── LEGS ── -->
    <rect x="28" y="104" width="8" height="8" fill="#222222"/>
    <rect x="36" y="104" width="8" height="8" fill="#222222"/>
    <rect x="28" y="112" width="8" height="8" fill="#222222"/>
    <rect x="36" y="112" width="8" height="8" fill="#222222"/>
    <rect x="20" y="120" width="8" height="8" fill="#333333"/>
    <rect x="28" y="120" width="8" height="8" fill="#222222"/>
    <rect x="36" y="120" width="8" height="8" fill="#222222"/>

    <rect x="68" y="104" width="8" height="8" fill="#222222"/>
    <rect x="76" y="104" width="8" height="8" fill="#222222"/>
    <rect x="68" y="112" width="8" height="8" fill="#222222"/>
    <rect x="76" y="112" width="8" height="8" fill="#222222"/>
    <rect x="68" y="120" width="8" height="8" fill="#222222"/>
    <rect x="76" y="120" width="8" height="8" fill="#222222"/>
    <rect x="84" y="120" width="8" height="8" fill="#333333"/>

    <!-- Shadow under feet -->
    <rect x="16" y="128" width="36" height="4" fill="#000000" opacity="0.04" rx="2"/>
    <rect x="64" y="128" width="36" height="4" fill="#000000" opacity="0.04" rx="2"/>
  </g>

  <!-- ═══════════════════════════════════════════════ -->
  <!-- TYPOGRAPHY                                      -->
  <!-- ═══════════════════════════════════════════════ -->

  <text x="272" y="110" class="mono" font-size="72" font-weight="800"
        fill="#111111" letter-spacing="-3">TDPilot</text>

  <!-- Color accent bar -->
  <rect x="274" y="120" width="52" height="3" fill="#ff3366"/>
  <rect x="330" y="120" width="36" height="3" fill="#00ccff"/>
  <rect x="370" y="120" width="26" height="3" fill="#00ff88"/>
  <rect x="400" y="120" width="18" height="3" fill="#ffcc00"/>

  <!-- Tagline -->
  <text x="274" y="150" class="mono" font-size="13.5" font-weight="400"
        fill="#111111" opacity="0.4" letter-spacing="0.5">build &amp; control touchdesigner with ai</text>

  <!-- Stats -->
  <g class="mono" font-size="10.5" opacity="0.25">
    <text x="274" y="178" fill="#111111">27 tools</text>
    <text x="348" y="178" fill="#ff3366">·</text>
    <text x="362" y="178" fill="#111111">expressions</text>
    <text x="454" y="178" fill="#00ccff">·</text>
    <text x="468" y="178" fill="#111111">live control</text>
    <text x="556" y="178" fill="#00ff88">·</text>
    <text x="570" y="178" fill="#111111">open source</text>
  </g>

  <!-- ═══════════════════════════════════════════════ -->
  <!-- PSYCHEDELIC PIXEL BORDER PATTERNS               -->
  <!-- ═══════════════════════════════════════════════ -->

  <!-- Top edge — color dash pattern -->
  <g opacity="0.15">
    <rect x="0" y="0" width="12" height="3" fill="#ff3366"/>
    <rect x="16" y="0" width="8" height="3" fill="#00ccff"/>
    <rect x="28" y="0" width="5" height="3" fill="#00ff88"/>
    <rect x="37" y="0" width="3" height="3" fill="#ffcc00"/>

    <rect x="280" y="0" width="3" height="3" fill="#ffcc00"/>
    <rect x="288" y="0" width="5" height="3" fill="#00ff88"/>
    <rect x="298" y="0" width="8" height="3" fill="#00ccff"/>
    <rect x="312" y="0" width="12" height="3" fill="#ff3366"/>

    <rect x="540" y="0" width="3" height="3" fill="#ff3366"/>
    <rect x="548" y="0" width="5" height="3" fill="#ffcc00"/>
    <rect x="558" y="0" width="8" height="3" fill="#00ff88"/>
    <rect x="572" y="0" width="12" height="3" fill="#00ccff"/>

    <rect x="720" y="0" width="8" height="3" fill="#ff3366"/>
    <rect x="732" y="0" width="12" height="3" fill="#00ccff"/>
    <rect x="748" y="0" width="12" height="3" fill="#00ff88"/>
  </g>

  <!-- Bottom edge -->
  <g opacity="0.15">
    <rect x="0" y="317" width="12" height="3" fill="#00ccff"/>
    <rect x="16" y="317" width="8" height="3" fill="#ff3366"/>
    <rect x="28" y="317" width="5" height="3" fill="#ffcc00"/>
    <rect x="37" y="317" width="3" height="3" fill="#00ff88"/>

    <rect x="360" y="317" width="12" height="3" fill="#ff3366"/>
    <rect x="376" y="317" width="8" height="3" fill="#00ff88"/>
    <rect x="388" y="317" width="5" height="3" fill="#00ccff"/>

    <rect x="720" y="317" width="12" height="3" fill="#00ff88"/>
    <rect x="736" y="317" width="8" height="3" fill="#ffcc00"/>
    <rect x="748" y="317" width="12" height="3" fill="#ff3366"/>
  </g>

  <!-- Right edge vertical dashes -->
  <g opacity="0.08">
    <rect x="757" y="100" width="3" height="8" fill="#ff3366"/>
    <rect x="757" y="114" width="3" height="5" fill="#00ccff"/>
    <rect x="757" y="125" width="3" height="3" fill="#00ff88"/>
    <rect x="757" y="180" width="3" height="8" fill="#ffcc00"/>
    <rect x="757" y="194" width="3" height="5" fill="#ff3366"/>
    <rect x="757" y="205" width="3" height="3" fill="#00ccff"/>
  </g>

  <!-- Pixel corner marks -->
  <g opacity="0.12">
    <rect x="6" y="6" width="2" height="16" fill="#111111"/>
    <rect x="6" y="6" width="16" height="2" fill="#111111"/>
    <rect x="752" y="298" width="2" height="16" fill="#111111"/>
    <rect x="738" y="314" width="16" height="2" fill="#111111"/>
  </g>

</svg>